<?xml version="1.0" encoding="utf-8"?>
<!-- Generator: Adobe Illustrator 25.0.0, SVG Export Plug-In . SVG Version: 6.00 Build 0)  -->
<svg version="1.1" id="Capa_1" xmlns="http://www.w3.org/2000/svg" xmlns:xlink="http://www.w3.org/1999/xlink" x="0px" y="0px"
	 viewBox="0 0 141.7 141.7" style="enable-background:new 0 0 141.7 141.7;" xml:space="preserve">
<style type="text/css">
	.st0{fill:#FFFFFF;}
</style>
<g>
	<g>
		<path class="st0" d="M72.3,87.4h-2.2l-2.9-4.8h8L72.3,87.4z M76.7,80.9H65.6c-0.3,0-0.6,0.2-0.8,0.4s-0.2,0.6,0,0.9l3.9,6.6
			c0.2,0.3,0.4,0.4,0.8,0.4h3.3l0,0c0.3,0,0.6-0.2,0.8-0.4l3.9-6.6c0.2-0.3,0.2-0.6,0-0.9C77.3,81,77,80.9,76.7,80.9"/>
		<g>
			<path class="st0" d="M98.5,76.1v21.2l-10.2,9h-6l9-15.5c0.2-0.3,0.2-0.7-0.1-1l-9.7-13.1c-0.2-0.2-0.4-0.4-0.7-0.4H61.5
				c-0.3,0-0.5,0.1-0.7,0.4l-9.7,13.1c-0.2,0.3-0.2,0.7-0.1,1l9,15.5h-5.9l-10.3-9V76.1l4.9-3.9c0.1-0.1,0.1-0.1,0.2-0.2l10.6-7.9
				c0.2-0.2,0.4-0.4,0.4-0.7V49.1H82v14.3c0,0.3,0.1,0.5,0.4,0.7l11.1,8l0.1,0.1L98.5,76.1z M62,106.3l-9.2-15.9l9.1-12.3h18.5
				l9.1,12.3l-9.2,15.9H62z M39.7,8.8l18,15.6l0.5,22.8h-9.8L37,32.8L39.7,8.8z M49.1,49.5c0.1-0.1,0.2-0.2,0.2-0.4h8.8v13.8l-9,6.7
				V49.5L49.1,49.5z M84.3,24.5l18-15.6l2.7,24L93.6,47.3h-9.8L84.3,24.5z M83.8,62.9V49.1h9.5v20.7L83.8,62.9z M106.6,33.6
				c0.1-0.2,0.2-0.4,0.2-0.6l-2.9-26c0-0.3-0.3-0.6-0.6-0.7c-0.3-0.1-0.7-0.1-0.9,0.2l-19.6,17c-0.2,0.2-0.3,0.4-0.3,0.6L82,47.3H60
				L59.4,24c0-0.2-0.1-0.5-0.3-0.6l-19.6-17c-0.2-0.2-0.6-0.3-0.9-0.2c-0.3,0.1-0.5,0.4-0.6,0.7l-2.9,26c0,0.2,0,0.5,0.2,0.6
				l11.9,15.1v22.3l-4.9,3.9C42.1,75,42,75.2,42,75.5v22.1c0,0.3,0.1,0.5,0.3,0.7l10.8,9.5c0.2,0.1,0.4,0.2,0.6,0.2h34.9
				c0.2,0,0.4-0.1,0.6-0.2l10.8-9.5c0.2-0.2,0.3-0.4,0.3-0.7v-22c0-0.3-0.1-0.5-0.3-0.7l-5-3.8V48.3L106.6,33.6"/>
		</g>
	</g>
	<g>
		<path class="st0" d="M34.7,137.8H27l-3.8-5.4h-0.3v5.4h-6.7v-19.5h9.4c4.4,0,7.6,3,7.6,7c0,2.5-1.1,4.6-3.2,5.8L34.7,137.8z
			 M27.9,136.2h3.8l-3.9-5.6l0.9-0.4c1.9-0.9,3.1-2.7,3.1-4.8c0-3.2-2.5-5.4-6-5.4h-7.7v16.2h3.4v-5.4h2.8L27.9,136.2z"/>
		<path class="st0" d="M56.3,137.8h-7.4l-0.9-2.4h-5.1l-0.9,2.4h-7.4l7.5-19.5h6.8L56.3,137.8z M50,136.2h3.9L47.7,120h-4.6
			l-6.2,16.2h3.9l0.9-2.4H49L50,136.2z"/>
		<path class="st0" d="M68.8,137.8H58v-19.5h10.4c3.8,0,6.6,2.2,6.6,5.3c0,1.6-0.6,3-1.7,3.9c1.6,1.1,2.5,2.7,2.5,4.6
			C75.8,135.5,72.9,137.8,68.8,137.8z M59.6,136.2h9.2c3.2,0,5.4-1.6,5.4-4c0-1.7-1-3-2.8-3.8l-1.6-0.7l1.6-0.8c1.3-0.6,2-1.8,2-3.3
			c0-2.2-2-3.7-5-3.7h-8.8L59.6,136.2L59.6,136.2z"/>
		<path class="st0" d="M89.3,137.8H78.5v-19.5H89c3.8,0,6.6,2.2,6.6,5.3c0,1.6-0.6,3-1.7,3.9c1.6,1.1,2.5,2.7,2.5,4.6
			C96.4,135.5,93.5,137.8,89.3,137.8z M80.2,136.2h9.2c3.2,0,5.4-1.6,5.4-4c0-1.7-1-3-2.8-3.8l-1.6-0.7l1.6-0.8c1.3-0.6,2-1.8,2-3.3
			c0-2.2-2-3.7-5-3.7h-8.8L80.2,136.2L80.2,136.2z"/>
		<path class="st0" d="M105.8,137.8h-6.7v-19.5h6.7V137.8z M100.8,136.2h3.4V120h-3.4V136.2z"/>
		<path class="st0" d="M120.5,137.8h-6.7v-13.4h-5.3v-6.1h17.2v6.1h-5.3L120.5,137.8L120.5,137.8z M115.4,136.2h3.4v-13.4h5.3V120
			h-14v2.9h5.3C115.4,122.9,115.4,136.2,115.4,136.2z"/>
	</g>
</g>
</svg>
